<?xml version="1.0" encoding="UTF-8"?>
<svg xmlns="http://www.w3.org/2000/svg" width="900" height="260" viewBox="0 0 900 260">
<rect x="0" y="0" width="900" height="260" fill="white"/>
<style>
.txt{font-family:Arial,Helvetica,sans-serif;font-size:13px;fill:#111;}
.thin{stroke:#111;stroke-width:2;fill:none;}
.dash{stroke:#111;stroke-width:2;fill:none;stroke-dasharray:6 6;}
.mark{stroke:#111;stroke-width:3;}
</style>
<line class="thin" x1="60.0" y1="130.0" x2="840.0" y2="130.0"/>
<rect x="192.6" y="90.0" width="80.0" height="40.0" fill="none" stroke="#111" stroke-width="2"/>
<line class="thin" x1="231.6" y1="45.0" x2="231.6" y2="85.0"/>
<polygon points="231.6,40.0 225.6,50.0 237.6,50.0" fill="#111"/>
<text class="txt" x="231.6" y="30.0" text-anchor="middle">Lift (L)</text>
<line class="mark" x1="231.6" y1="105.0" x2="231.6" y2="155.0"/>
<text class="txt" x="231.6" y="175.0" text-anchor="middle">Wing AC</text>
<line class="mark" x1="216.0" y1="105.0" x2="216.0" y2="155.0"/>
<text class="txt" x="216.0" y="95.0" text-anchor="middle">CG</text>
<line class="dash" x1="262.7" y1="100.0" x2="262.7" y2="160.0"/>
<text class="txt" x="262.7" y="195.0" text-anchor="middle">Neutral Point</text>
<line class="mark" x1="684.0" y1="105.0" x2="684.0" y2="155.0"/>
<text class="txt" x="684.0" y="175.0" text-anchor="middle">Tail AC</text>
<line class="thin" x1="216.0" y1="215.0" x2="684.0" y2="215.0"/>
<polygon points="216.0,215.0 224.0,210.0 224.0,220.0" fill="#111"/>
<polygon points="684.0,215.0 676.0,210.0 676.0,220.0" fill="#111"/>
<text class="txt" x="450.0" y="205.0" text-anchor="middle">l_t = 0.600 m</text>
<text class="txt" x="60" y="25">x_cg = 0.330 m, x_np = 0.390 m, SM = 29.93% MAC</text>
</svg>
